<svg xmlns="http://www.w3.org/2000/svg" viewBox="0 0 900 600" role="img" aria-label="Kingdom of Sardinia">
<rect width="900" height="600" fill="#ffffff"/>
<rect width="900" height="600" fill="none" stroke="#b71c1c" stroke-width="28"/>
<path d="M140 110h120v120H140zM640 110h120v120H640zM140 360h120v120H140zM640 360h120v120H640z" fill="#b71c1c"/>
<path d="M260 140c65 0 130 65 130 130s-65 130-130 130-130-65-130-130 65-130 130-130z" fill="#ffffff" stroke="#111" stroke-width="14"/>
<path d="M213 190h94v20h-94zm0 36h94v20h-94zm0 36h94v20h-94z" fill="#111"/>
<circle cx="260" cy="250" r="18" fill="#b71c1c"/>
<rect x="680" y="140" width="30" height="230" fill="#111"/>
<path d="M665 150c35-24 92-23 125 14-13 36-44 62-92 64-34 1-58-20-69-44 3-12 15-24 36-34z" fill="#d4af37" stroke="#111" stroke-width="6"/>
<path d="M702 154c0-18 11-33 28-33 16 0 28 15 28 33v50h-56z" fill="#111"/>
</svg>
